HIERARCHY
ROOT Hips
{
  OFFSET 0 0 0
  CHANNELS 6 Xposition Yposition Zposition Zrotation Yrotation Xrotation
  JOINT LeftThigh
  {
    OFFSET 8.409438 0 -5.917753
    CHANNELS 3 Zrotation Yrotation Xrotation
    JOINT LeftLeg
    {
      OFFSET 0 0 -42.358652
      CHANNELS 3 Zrotation Yrotation Xrotation
      JOINT LeftFoot
      {
        OFFSET 0 0 -39.357303
        CHANNELS 3 Zrotation Yrotation Xrotation
      }
    }
  }
  JOINT RightThigh
  {
    OFFSET -8.409438 0 -5.917753
    CHANNELS 3 Zrotation Yrotation Xrotation
    JOINT RightLeg
    {
      OFFSET 0 0 -42.358652
      CHANNELS 3 Zrotation Yrotation Xrotation
      JOINT RightFoot
      {
        OFFSET 0 0 -39.357303
        CHANNELS 3 Zrotation Yrotation Xrotation
      }
    }
  }
  JOINT SpineLow
  {
    OFFSET 0 0 4.719101
    CHANNELS 3 Zrotation Yrotation Xrotation
    JOINT SpineMid
    {
      OFFSET 0 0 12.899191
      CHANNELS 3 Zrotation Yrotation Xrotation
      JOINT Chest
      {
        OFFSET 0 0 12.899191
        CHANNELS 3 Zrotation Yrotation Xrotation
        JOINT LeftShoulder
        {
          OFFSET 7.550562 1.41573 9.438202
          CHANNELS 3 Zrotation Yrotation Xrotation
          JOINT LeftArm
          {
            OFFSET 9.155056 0 4.247191
            CHANNELS 3 Zrotation Yrotation Xrotation
            JOINT LeftForearm
            {
              OFFSET 0 0 25.771955
              CHANNELS 3 Zrotation Yrotation Xrotation
              JOINT LeftHand
              {
                OFFSET 0 0 25.197169
                CHANNELS 3 Zrotation Yrotation Xrotation
              }
            }
          }
        }
        JOINT RightShoulder
        {
          OFFSET -7.550562 1.41573 9.438202
          CHANNELS 3 Zrotation Yrotation Xrotation
          JOINT RightArm
          {
            OFFSET -9.155056 0 4.247191
            CHANNELS 3 Zrotation Yrotation Xrotation
            JOINT RightForearm
            {
              OFFSET 0 0 -25.771955
              CHANNELS 3 Zrotation Yrotation Xrotation
              JOINT RightHand
              {
                OFFSET 0 0 -25.197169
                CHANNELS 3 Zrotation Yrotation Xrotation
              }
            }
          }
        }
        JOINT Neck
        {
          OFFSET 0 0 15.101124
          CHANNELS 3 Zrotation Yrotation Xrotation
          JOINT Head
          {
            OFFSET 0 0 11.325843
            CHANNELS 3 Zrotation Yrotation Xrotation
            End Site
            {
              OFFSET 0 0 14.157303
            }
          }
        }
      }
    }
  }
}
MOTION
Frames: 8
Frame Time: 0.0
0.0  89.887642  0.0  5.447912  -4.154653  -91.554015  -4.19427  -8.9707  -13.262183  3.39569  10.49536  36.974595  4.271828  0.971647  2.890069  -16.706577  15.192265  -21.575148  5.711223  5.43337  33.35329  7.3114  1.908922  -1.757943  -0.587451  0.428006  0.021798  -1.605508  1.170361  0.049188  -1.605508  1.170361  0.049188  -9.445913  19.753279  4.798249  142.215816  37.079738  -162.529073  2.268891  -8.496006  43.073464  86.831322  -6.829999  3.061007  1.01531  -1.89955  26.13834  67.090161  28.609037  28.960241  -6.198155  -11.640177  -49.389412  89.07039  -0.070542  -17.155627  -7.910357  2.161583  -1.744611  -5.92595  1.644109  -1.280565  
0.0  89.887642  0.0  5.675121  -0.491858  -91.167004  -6.34828  -8.673246  -14.878863  2.292303  11.110458  37.654708  4.273157  1.018548  3.029425  -18.077474  15.809867  -21.074675  5.039715  5.712147  33.44884  7.111841  1.849028  -1.803907  -0.770432  0.445992  0.148958  -2.103364  1.223671  0.392948  -2.103364  1.223671  0.392949  -10.727522  19.880862  3.71175  139.657721  38.162879  -161.66001  1.551968  -8.519282  43.330244  87.061514  -6.368243  2.938338  1.733245  -1.810095  25.832155  65.096094  27.326333  27.809724  -7.445773  -16.850291  -50.635289  86.404762  -1.31447  -17.668326  -9.265713  2.12497  -2.155276  -6.941096  1.62687  -1.58447  
0.0  89.887642  0.0  5.797634  3.570213  -90.778559  -7.805107  -8.375296  -16.188586  0.369199  11.798599  37.783535  4.215329  1.069683  3.1539  -18.846667  16.527998  -20.192972  3.929361  5.821189  33.495903  6.780015  1.840778  -1.806613  -0.977092  0.337224  0.200734  -2.668124  0.929697  0.534991  -2.668124  0.929697  0.534991  -11.764564  20.71744  2.885849  136.61462  39.390613  -160.800072  0.616541  -8.106883  43.6573  87.206942  -5.898734  2.516676  2.724646  -1.310759  26.204285  62.668887  26.553857  26.611645  -7.17097  -18.603633  -53.4246  79.249886  -3.402891  -20.705931  -10.660156  2.55634  -2.279247  -7.984387  1.957747  -1.665129  
0.0  89.887642  0.0  5.844987  8.01098  -90.597675  -8.841138  -8.031548  -16.922565  -2.089567  12.542113  37.402034  4.123871  1.040389  3.190279  -19.184171  17.218129  -18.808908  2.554619  5.979677  33.512577  6.377819  1.85844  -1.818095  -1.184999  0.166072  0.295607  -3.23704  0.46829  0.799665  -3.23704  0.46829  0.799665  -12.919539  21.91326  1.605656  132.918063  40.737968  -160.354481  -0.773179  -7.188068  44.099734  87.292716  -5.517513  1.937433  3.67849  -0.683454  26.634291  59.039557  27.573131  25.291273  -4.222083  -20.703692  -55.941646  75.440118  -4.383003  -22.835615  -12.301186  3.148206  -2.558127  -9.210578  2.413846  -1.855567  
0.0  89.887642  0.0  5.929972  12.500363  -90.387259  -9.687347  -7.761164  -17.484304  -4.457369  13.244365  36.772046  5.185481  1.625979  3.765941  -19.388339  17.728056  -17.329701  1.199823  6.364819  33.507387  5.978323  1.931116  -1.849547  -1.354615  -0.026421  0.44783  -3.703049  -0.047113  1.225135  -3.70305  -0.047113  1.225135  -14.398243  22.95067  -0.498032  128.761727  41.896764  -160.173986  -2.75049  -5.835813  44.604237  87.264702  -5.307161  1.393753  4.574687  0.336956  26.387639  57.008889  28.52516  24.332044  -2.814732  -23.890228  -58.427496  76.133879  -4.813521  -21.496442  -14.003846  3.678307  -3.112337  -10.480856  2.83188  -2.250442  
0.0  89.887642  0.0  6.187877  17.129719  -89.951075  -10.752753  -7.532633  -18.163732  -6.238379  13.914837  36.037309  5.145937  1.599455  3.605413  -19.568702  18.232059  -16.027833  -0.362238  6.939894  33.558095  5.486263  2.059269  -1.890674  -1.535919  -0.229427  0.552601  -4.203375  -0.591703  1.524385  -4.203375  -0.591703  1.524385  -15.778094  24.034526  -2.588705  124.405274  43.006631  -159.893743  -5.394702  -4.109063  45.189894  86.797101  -5.140833  1.12422  5.610254  1.766565  25.758542  58.412462  28.274322  24.224841  -5.05164  -27.578723  -60.140082  76.471659  -4.610463  -19.647971  -15.871564  4.176706  -3.786132  -11.873047  3.23356  -2.73185  
0.0  89.887642  0.0  6.49239  21.833411  -89.702969  -11.850934  -7.250186  -18.644424  -7.737015  14.499557  35.27832  5.181808  1.575841  3.438359  -19.454161  18.773004  -14.387438  -2.189485  7.593434  33.592858  5.130417  2.345097  -1.936023  -1.787384  -0.357892  0.503771  -4.893151  -0.940381  1.402674  -4.893151  -0.940381  1.402674  -16.007338  25.524597  -2.969383  119.554875  44.489043  -159.891795  -8.868465  -2.03587  45.803108  85.908097  -5.131964  1.018252  7.329066  2.458491  26.271648  60.331864  26.850254  23.765924  -8.073656  -31.047873  -62.539347  74.077306  -4.822546  -18.7892  -17.413487  4.653067  -3.743508  -13.024983  3.600049  -2.675768  
0.0  89.887642  0.0  6.803986  26.569615  -89.618928  -12.578707  -6.829721  -18.920529  -9.156931  14.927562  34.575289  5.049479  1.493932  3.234453  -19.153416  19.081729  -12.285005  -4.057825  8.340262  33.342574  4.530745  2.540519  -1.9741  -2.125715  -0.45188  0.26925  -5.815978  -1.210398  0.775095  -5.815978  -1.210398  0.775095  -15.080702  27.118001  -1.913225  115.562492  45.540667  -159.463944  -12.710319  0.428099  46.665521  84.750697  -5.373593  0.787584  9.684769  2.71244  28.387872  61.404186  25.987162  23.00222  -9.820038  -35.97822  -66.140861  70.179333  -5.012975  -18.70019  -18.703969  5.349742  -3.040605  -13.99152  4.109991  -2.11691  
